<svg width="938" height="667" viewBox="0 0 938 667" fill="none" xmlns="http://www.w3.org/2000/svg">
<rect width="938" height="667" fill="white"/>
<path d="M107 615H897" stroke="#0E0D46" stroke-width="4" stroke-miterlimit="10" stroke-linecap="round" stroke-linejoin="round"/>
<path d="M40 614.776H74" stroke="#0E0D46" stroke-width="4" stroke-miterlimit="10" stroke-linecap="round" stroke-linejoin="round"/>
<path d="M311.823 113.262C311.823 102.437 320.594 93.6663 331.419 93.6663C342.245 93.6663 351.016 102.437 351.016 113.262H311.823Z" fill="#C6C5FF"/>
<path d="M311.823 116.262C311.823 105.437 320.594 96.6663 331.419 96.6663C342.245 96.6663 351.016 105.437 351.016 116.262H311.823Z" stroke="#0E0D46" stroke-width="4" stroke-miterlimit="10" stroke-linecap="round" stroke-linejoin="round"/>
<path d="M603.847 113.262C603.847 102.437 612.617 93.6663 623.443 93.6663C634.269 93.6663 643.039 102.437 643.039 113.262H603.847Z" fill="#C6C5FF"/>
<path d="M603.847 116.262C603.847 105.437 612.617 96.6663 623.443 96.6663C634.269 96.6663 643.039 105.437 643.039 116.262H603.847Z" stroke="#0E0D46" stroke-width="4" stroke-miterlimit="10" stroke-linecap="round" stroke-linejoin="round"/>
<path d="M631.392 130.118C602.751 130.118 579.592 119.155 566.026 98.7366L557.255 86.9515C539.167 62.6961 509.841 48.3073 479.008 48.3073H475.719C444.886 48.3073 415.697 62.6961 397.471 86.9515L388.701 98.7366C371.845 124.225 339.916 134.914 301.135 128.062L304.013 111.892C322.924 115.181 357.32 116.825 375.134 89.5552L375.408 89.1441L384.316 77.2219C405.556 48.8555 439.678 32 475.719 32H479.008C515.048 32 549.17 48.8555 570.411 77.2219L579.729 89.5552C597.544 116.825 631.94 115.318 650.851 111.892L653.729 128.062C645.918 129.433 638.518 130.118 631.392 130.118Z" fill="#A8A6FF" fill-opacity="0.09"/>
<path d="M631.392 130.118C602.751 130.118 579.592 119.155 566.026 98.7366L557.255 86.9515C539.167 62.6961 509.841 48.3073 479.008 48.3073H475.719C444.886 48.3073 415.697 62.6961 397.471 86.9515L388.701 98.7366C371.845 124.225 339.916 134.914 301.135 128.062L304.013 111.892C322.924 115.181 357.32 116.825 375.134 89.5552L375.408 89.1441L384.316 77.2219C405.556 48.8555 439.678 32 475.719 32H479.008C515.048 32 549.17 48.8555 570.411 77.2219L579.729 89.5552C597.544 116.825 631.94 115.318 650.851 111.892L653.729 128.062C645.918 129.433 638.518 130.118 631.392 130.118Z" fill="#DFDEFF" stroke="#0E0D46" stroke-width="4" stroke-miterlimit="10" stroke-linecap="round" stroke-linejoin="round"/>
<path d="M201.226 348.28H175.326L146 541.501C146 541.501 166.692 531.771 173.681 531.771C195.881 531.771 201.363 541.501 201.363 541.501V348.28H201.226Z" fill="#F9F9FF"/>
<path d="M201.226 348.28H175.326L146 541.501C146 541.501 166.692 531.771 173.681 531.771C195.881 531.771 201.363 541.501 201.363 541.501V348.28H201.226Z" stroke="#0E0D46" stroke-width="6" stroke-miterlimit="10" stroke-linecap="round" stroke-linejoin="round"/>
<path d="M201.226 348.28H175.326L146 541.501C146 541.501 166.692 531.771 173.681 531.771C195.881 531.771 201.363 541.501 201.363 541.501V348.28H201.226Z" stroke="#0E0D46" stroke-width="6" stroke-miterlimit="10" stroke-linecap="round" stroke-linejoin="round"/>
<path d="M197.523 348.279H175.461L146.135 541.501C146.135 541.501 160.935 534.649 169.705 532.456L197.523 348.279Z" fill="#A8A6FF" fill-opacity="0.09"/>
<path d="M197.523 348.279H175.461L146.135 541.501C146.135 541.501 160.935 534.649 169.705 532.456L197.523 348.279Z" stroke="#0E0D46" stroke-width="6" stroke-miterlimit="10" stroke-linecap="round" stroke-linejoin="round"/>
<path d="M753.376 348.115H779.276L808.602 541.337C808.602 541.337 787.909 531.607 780.921 531.607C758.721 531.607 753.239 541.337 753.239 541.337V348.115H753.376Z" fill="#F9F9FF"/>
<path d="M753.376 348.115H779.276L808.602 541.337C808.602 541.337 787.909 531.607 780.921 531.607C758.721 531.607 753.239 541.337 753.239 541.337V348.115H753.376Z" stroke="#0E0D46" stroke-width="6" stroke-miterlimit="10" stroke-linecap="round" stroke-linejoin="round"/>
<path d="M753.376 348.115H779.276L808.602 541.337C808.602 541.337 787.909 531.607 780.921 531.607C758.721 531.607 753.239 541.337 753.239 541.337V348.115H753.376Z" stroke="#0E0D46" stroke-width="6" stroke-miterlimit="10" stroke-linecap="round" stroke-linejoin="round"/>
<path d="M759.076 348.116H781.139L810.465 541.337C810.465 541.337 795.665 534.485 786.895 532.292L759.076 348.116Z" fill="#A8A6FF" fill-opacity="0.09"/>
<path d="M757.076 348.116H779.139L808.465 541.337C808.465 541.337 793.665 534.485 784.895 532.292L757.076 348.116Z" stroke="#0E0D46" stroke-width="6" stroke-miterlimit="10" stroke-linecap="round" stroke-linejoin="round"/>
<path d="M718.273 613.582H235.905C217.679 613.582 203.017 598.919 203.017 580.693V238.102H751.161V580.693C751.161 598.919 736.499 613.582 718.273 613.582Z" fill="#A8A6FF" fill-opacity="0.09"/>
<path opacity="0.48" d="M554.104 524.097H400.623C388.564 524.097 378.697 514.23 378.697 502.171V446.397H576.029V502.171C576.029 514.367 566.163 524.097 554.104 524.097Z" fill="#A8A6FF" fill-opacity="0.09" stroke="#A8A6FF" stroke-opacity="0.09" stroke-width="10" stroke-miterlimit="10"/>
<path opacity="0.48" d="M718.546 598.097H236.179C217.953 598.097 203.29 583.434 203.29 565.208V581.378C203.29 599.604 217.953 614.267 236.179 614.267H718.546C736.772 614.267 751.435 599.604 751.435 581.378V565.208C751.435 583.434 736.772 598.097 718.546 598.097Z" fill="#A8A6FF" fill-opacity="0.09"/>
<path d="M751.435 393.776V244.269H203.29V393.776C210.69 397.339 218.638 399.942 227.134 401.724C298.53 416.112 376.641 422.827 472.977 422.827H481.748C578.084 422.827 656.195 416.112 727.591 401.724C736.087 399.942 744.035 397.339 751.435 393.776Z" fill="#BEBDE7"/>
<path d="M554.104 514.505H400.623C388.564 514.505 378.697 504.638 378.697 492.579V436.805H576.029V492.579C576.029 504.775 566.163 514.505 554.104 514.505Z" fill="#F9F9FF"/>
<path opacity="0.45" d="M378.697 467.227C386.234 474.353 396.375 478.738 407.475 478.738H547.252C558.352 478.738 568.492 474.353 576.029 467.227V442.286H378.697V467.227Z" fill="#F9F9FF"/>
<path d="M554.104 514.505H400.623C388.564 514.505 378.697 504.638 378.697 492.579V436.805H576.029V492.579C576.029 504.775 566.163 514.505 554.104 514.505Z" stroke="#0E0D46" stroke-width="6" stroke-miterlimit="10" stroke-linecap="round" stroke-linejoin="round"/>
<path d="M547.251 465.034H407.474C388.974 465.034 373.9 449.961 373.9 431.461V398.024H580.825V431.598C580.825 450.098 565.751 465.034 547.251 465.034Z" fill="#DFDEFF"/>
<path opacity="0.84" d="M373.9 419.95C404.871 421.731 437.622 422.69 472.978 422.69H481.748C516.966 422.69 549.855 421.731 580.825 419.95V398.024H373.9V419.95Z" fill="#DFDEFF"/>
<path d="M547.251 465.034H407.474C388.974 465.034 373.9 449.961 373.9 431.461V398.024H580.825V431.598C580.825 450.098 565.751 465.034 547.251 465.034Z" stroke="#0E0D46" stroke-width="4" stroke-miterlimit="10" stroke-linecap="round" stroke-linejoin="round"/>
<path d="M387.604 429.953V404.19H567.121V429.953C567.121 440.916 558.214 449.823 547.251 449.823H407.474C396.511 449.823 387.604 440.916 387.604 429.953Z" stroke="#0E0D46" stroke-width="3" stroke-miterlimit="10" stroke-linecap="round" stroke-linejoin="round" stroke-dasharray="5 5"/>
<path d="M718.546 614.267H236.179C217.953 614.267 203.29 599.604 203.29 581.378V238.788H751.435V581.378C751.435 599.604 736.772 614.267 718.546 614.267Z" stroke="#0E0D46" stroke-width="6" stroke-miterlimit="10" stroke-linecap="round" stroke-linejoin="round"/>
<path d="M236.179 592.341C230.149 592.341 225.216 587.408 225.216 581.378V260.713H729.509V581.378C729.509 587.408 724.576 592.341 718.546 592.341H236.179Z" stroke="#0E0D46" stroke-width="4" stroke-miterlimit="10" stroke-linecap="round" stroke-linejoin="round" stroke-dasharray="7 7"/>
<path d="M183.42 159.855L164.92 294.835C159.165 336.632 186.024 374.042 229.739 382.813C310.316 398.983 393.634 403.779 477.363 403.642C561.092 403.779 644.41 399.12 724.987 382.813C768.702 374.042 795.561 336.632 789.806 294.835L771.306 159.855C768.976 142.862 752.121 129.022 732.798 128.062C562.325 119.977 392.538 119.977 222.065 128.062C202.742 129.022 185.75 142.862 183.42 159.855Z" fill="#ECECFF"/>
<path opacity="0.55" d="M789.806 294.835L771.306 159.855C768.976 142.862 752.121 129.022 732.798 128.062C562.325 119.977 392.538 119.977 222.065 128.062C202.742 129.022 185.887 142.862 183.557 159.855L164.92 294.835C159.165 336.632 186.024 374.042 229.739 382.813C310.316 398.983 393.634 403.779 477.363 403.642C561.092 403.779 644.41 399.12 724.987 382.813C768.565 374.042 795.424 336.632 789.806 294.835ZM724.85 383.224C654.414 398.024 577.262 404.876 481.748 404.876H472.841C377.327 404.876 300.175 398.024 229.739 383.224C192.602 375.413 169.306 342.524 174.239 305.113L192.876 163.007C194.383 151.359 206.579 141.492 220.009 140.807C305.52 136.559 391.989 134.366 477.226 134.366C562.462 134.366 649.069 136.559 734.443 140.807C747.872 141.492 760.069 151.496 761.576 163.007L780.213 305.113C785.42 342.524 761.987 375.413 724.85 383.224Z" fill="#F9F9FF"/>
<path d="M183.42 159.855L164.92 294.835C159.165 336.632 186.024 374.042 229.739 382.813C310.316 398.983 393.634 403.779 477.363 403.642C561.092 403.779 644.41 399.12 724.987 382.813C768.702 374.042 795.561 336.632 789.806 294.835L771.306 159.855C768.976 142.862 752.121 129.022 732.798 128.062C562.325 119.977 392.538 119.977 222.065 128.062C202.742 129.022 185.75 142.862 183.42 159.855Z" stroke="#0E0D46" stroke-width="6" stroke-miterlimit="10" stroke-linecap="round" stroke-linejoin="round"/>
<path d="M472.978 381.579C379.108 381.579 303.19 375.139 234.123 361.161C201.92 354.72 182.461 328.546 186.709 297.713L205.209 162.733C206.031 156.977 213.568 150.399 223.024 149.851C307.438 145.877 393.085 143.822 477.363 143.822C561.64 143.822 647.151 145.877 731.702 149.851C741.294 150.262 748.694 156.977 749.517 162.733L768.016 297.713C772.265 328.683 752.805 354.72 720.602 361.161C651.536 375.139 575.618 381.579 481.748 381.579H472.978Z" stroke="#0E0D46" stroke-width="4" stroke-linecap="round" stroke-linejoin="round" stroke-dasharray="7.01 7.01"/>
<path d="M320.457 634C306.89 634 295.79 622.9 295.79 609.334V262.769H345.123V609.334C345.123 622.9 334.16 634 320.457 634Z" fill="#DFDEFF"/>
<path d="M345.123 262.769H295.79V280.584H345.123V262.769Z" fill="#0E0D46"/>
<path opacity="0.78" d="M345.123 358.557H295.79V383.224H345.123V358.557Z" fill="#DFDEFF"/>
<path d="M320.457 634C306.89 634 295.79 622.9 295.79 609.334V262.769H345.123V609.334C345.123 622.9 334.16 634 320.457 634Z" stroke="#0E0D46" stroke-width="6" stroke-miterlimit="10" stroke-linecap="round" stroke-linejoin="round"/>
<path d="M279.346 342.113V417.483H295.79V401.038V394.324V358.557H345.123V394.324V401.038V417.483H361.567V342.113H279.346Z" fill="white"/>
<path d="M348.274 342.113H292.911C285.511 342.113 279.481 348.142 279.481 355.542V404.053C279.481 411.453 285.511 417.483 292.911 417.483H295.926V401.038V383.224V358.557H345.259V383.224V401.038V417.483H348.274C355.674 417.483 361.703 411.453 361.703 404.053V355.542C361.566 348.142 355.674 342.113 348.274 342.113Z" stroke="#0E0D46" stroke-width="5" stroke-miterlimit="10" stroke-linecap="round" stroke-linejoin="round"/>
<path d="M320.457 322.928C324.619 322.928 327.994 319.553 327.994 315.391C327.994 311.228 324.619 307.854 320.457 307.854C316.294 307.854 312.92 311.228 312.92 315.391C312.92 319.553 316.294 322.928 320.457 322.928Z" fill="white"/>
<path d="M320.457 322.928C324.619 322.928 327.994 319.553 327.994 315.391C327.994 311.228 324.619 307.854 320.457 307.854C316.294 307.854 312.92 311.228 312.92 315.391C312.92 319.553 316.294 322.928 320.457 322.928Z" stroke="#0E0D46" stroke-width="4" stroke-miterlimit="10" stroke-linecap="round" stroke-linejoin="round"/>
<path d="M320.457 396.653C324.619 396.653 327.994 393.279 327.994 389.116C327.994 384.954 324.619 381.579 320.457 381.579C316.294 381.579 312.92 384.954 312.92 389.116C312.92 393.279 316.294 396.653 320.457 396.653Z" fill="white"/>
<path d="M320.457 398.709C324.619 398.709 327.994 395.334 327.994 391.172C327.994 387.009 324.619 383.635 320.457 383.635C316.294 383.635 312.92 387.009 312.92 391.172C312.92 395.334 316.294 398.709 320.457 398.709Z" stroke="#0E0D46" stroke-width="4" stroke-miterlimit="10" stroke-linecap="round" stroke-linejoin="round"/>
<path d="M320.457 545.063C324.619 545.063 327.994 541.689 327.994 537.526C327.994 533.364 324.619 529.99 320.457 529.99C316.294 529.99 312.92 533.364 312.92 537.526C312.92 541.689 316.294 545.063 320.457 545.063Z" fill="#A8A6FF" fill-opacity="0.09"/>
<path d="M320.457 545.063C324.619 545.063 327.994 541.689 327.994 537.526C327.994 533.364 324.619 529.99 320.457 529.99C316.294 529.99 312.92 533.364 312.92 537.526C312.92 541.689 316.294 545.063 320.457 545.063Z" stroke="#0E0D46" stroke-width="4" stroke-miterlimit="10" stroke-linecap="round" stroke-linejoin="round"/>
<path d="M320.456 396.653C317.441 396.653 314.975 394.187 314.975 391.172V347.457C314.975 344.442 317.441 341.976 320.456 341.976C323.471 341.976 325.938 344.442 325.938 347.457V391.172C325.938 394.324 323.608 396.653 320.456 396.653Z" fill="white"/>
<path d="M320.456 396.653C317.441 396.653 314.975 394.187 314.975 391.172V347.457C314.975 344.442 317.441 341.976 320.456 341.976C323.471 341.976 325.938 344.442 325.938 347.457V391.172C325.938 394.324 323.608 396.653 320.456 396.653Z" stroke="#0E0D46" stroke-width="4" stroke-miterlimit="10" stroke-linecap="round" stroke-linejoin="round"/>
<path d="M634.269 634C620.702 634 609.603 622.9 609.603 609.334V262.769H658.936V609.334C658.936 622.9 647.836 634 634.269 634Z" fill="#DFDEFF"/>
<path opacity="0.78" d="M657.291 358.968H607.958V383.635H657.291V358.968Z" fill="#DFDEFF"/>
<path d="M634.269 634C620.702 634 609.603 622.9 609.603 609.334V262.769H658.936V609.334C658.936 622.9 647.836 634 634.269 634Z" stroke="#0E0D46" stroke-width="6" stroke-miterlimit="10" stroke-linecap="round" stroke-linejoin="round"/>
<path d="M593.158 342.113V417.483H609.603V401.038V394.324V358.557H658.936V394.324V401.038V417.483H675.38V342.113H593.158Z" fill="white"/>
<path d="M661.95 342.113H606.588C599.188 342.113 593.158 348.142 593.158 355.542V404.053C593.158 411.453 599.188 417.483 606.588 417.483H609.603V401.038V383.224V358.557H658.936V383.224V401.038V417.483H661.95C669.35 417.483 675.38 411.453 675.38 404.053V355.542C675.38 348.142 669.35 342.113 661.95 342.113Z" stroke="#0E0D46" stroke-width="5" stroke-miterlimit="10" stroke-linecap="round" stroke-linejoin="round"/>
<path d="M634.269 322.928C638.432 322.928 641.806 319.553 641.806 315.391C641.806 311.228 638.432 307.854 634.269 307.854C630.107 307.854 626.732 311.228 626.732 315.391C626.732 319.553 630.107 322.928 634.269 322.928Z" fill="white"/>
<path d="M634.269 322.928C638.432 322.928 641.806 319.553 641.806 315.391C641.806 311.228 638.432 307.854 634.269 307.854C630.107 307.854 626.732 311.228 626.732 315.391C626.732 319.553 630.107 322.928 634.269 322.928Z" stroke="#0E0D46" stroke-width="4" stroke-miterlimit="10" stroke-linecap="round" stroke-linejoin="round"/>
<path d="M634.269 396.653C638.432 396.653 641.806 393.279 641.806 389.116C641.806 384.954 638.432 381.579 634.269 381.579C630.107 381.579 626.732 384.954 626.732 389.116C626.732 393.279 630.107 396.653 634.269 396.653Z" fill="white"/>
<path d="M634.269 398.709C638.432 398.709 641.806 395.334 641.806 391.172C641.806 387.009 638.432 383.635 634.269 383.635C630.107 383.635 626.732 387.009 626.732 391.172C626.732 395.334 630.107 398.709 634.269 398.709Z" stroke="#0E0D46" stroke-width="4" stroke-miterlimit="10" stroke-linecap="round" stroke-linejoin="round"/>
<path d="M634.269 496.279C638.432 496.279 641.806 492.904 641.806 488.742C641.806 484.579 638.432 481.205 634.269 481.205C630.107 481.205 626.732 484.579 626.732 488.742C626.732 492.904 630.107 496.279 634.269 496.279Z" fill="#A8A6FF" fill-opacity="0.09"/>
<path d="M634.269 496.279C638.432 496.279 641.806 492.904 641.806 488.742C641.806 484.579 638.432 481.205 634.269 481.205C630.107 481.205 626.732 484.579 626.732 488.742C626.732 492.904 630.107 496.279 634.269 496.279Z" stroke="#0E0D46" stroke-width="4" stroke-miterlimit="10" stroke-linecap="round" stroke-linejoin="round"/>
<path d="M634.269 545.063C638.432 545.063 641.806 541.689 641.806 537.526C641.806 533.364 638.432 529.99 634.269 529.99C630.107 529.99 626.732 533.364 626.732 537.526C626.732 541.689 630.107 545.063 634.269 545.063Z" fill="#A8A6FF" fill-opacity="0.09"/>
<path d="M634.269 396.653C631.254 396.653 628.787 394.187 628.787 391.172V347.457C628.787 344.442 631.254 341.976 634.269 341.976C637.283 341.976 639.75 344.442 639.75 347.457V391.172C639.613 394.324 637.283 396.653 634.269 396.653Z" fill="white"/>
<path d="M634.269 396.653C631.254 396.653 628.787 394.187 628.787 391.172V347.457C628.787 344.442 631.254 341.976 634.269 341.976C637.283 341.976 639.75 344.442 639.75 347.457V391.172C639.613 394.324 637.283 396.653 634.269 396.653Z" stroke="#0E0D46" stroke-width="4" stroke-miterlimit="10" stroke-linecap="round" stroke-linejoin="round"/>
<path d="M658.936 262.769H609.603V280.584H658.936V262.769Z" fill="#0E0D46"/>
<path d="M476.5 298C493.897 298 508 283.897 508 266.5C508 249.103 493.897 235 476.5 235C459.103 235 445 249.103 445 266.5C445 283.897 459.103 298 476.5 298Z" fill="#1E1AD7"/>
<path d="M476.208 235C471.334 234.997 466.525 236.115 462.154 238.267C457.782 240.418 453.966 243.546 451 247.408C457.25 243.167 464.809 241.287 472.322 242.106C479.834 242.926 486.809 246.391 491.994 251.88C497.18 257.368 500.237 264.522 500.618 272.058C500.998 279.593 498.678 287.018 494.072 293C499.696 289.185 503.948 283.671 506.202 277.266C508.456 270.861 508.594 263.903 506.596 257.414C504.598 250.925 500.568 245.246 495.099 241.212C489.63 237.178 483.01 235.001 476.21 235H476.208Z" fill="#6360FA"/>
<path d="M476.5 298C493.897 298 508 283.897 508 266.5C508 249.103 493.897 235 476.5 235C459.103 235 445 249.103 445 266.5C445 283.897 459.103 298 476.5 298Z" stroke="#363A5A" stroke-width="6" stroke-miterlimit="10"/>
</svg>
