<svg width="2015" height="324" viewBox="0 0 2015 324" fill="none" xmlns="http://www.w3.org/2000/svg">
<path d="M101.706 322.002C88.976 322.002 76.581 320.528 64.521 317.58C52.595 314.632 41.741 310.21 31.959 304.314C22.311 298.284 14.539 290.78 8.643 281.802C2.881 272.824 0 262.372 0 250.446C0 250.044 0 249.575 0 249.039C0 248.503 0 248.034 0 247.632H71.154C71.154 248.034 71.154 248.436 71.154 248.838C71.154 249.24 71.154 249.642 71.154 250.044C71.154 256.744 74.035 261.568 79.797 264.516C85.693 267.464 93.666 268.938 103.716 268.938C108.272 268.938 112.895 268.469 117.585 267.531C122.409 266.459 126.429 264.784 129.645 262.506C132.995 260.094 134.67 257.079 134.67 253.461C134.67 247.699 131.186 243.612 124.218 241.2C117.384 238.788 105.793 236.242 89.445 233.562C80.065 232.088 70.283 229.877 60.099 226.929C50.049 223.981 40.669 220.028 31.959 215.07C23.249 210.112 16.214 203.814 10.854 196.176C5.494 188.538 2.814 179.158 2.814 168.036C2.814 152.894 7.37 140.298 16.482 130.248C25.594 120.064 37.654 112.359 52.662 107.133C67.804 101.907 84.42 99.294 102.51 99.294C119.662 99.294 135.675 102.175 150.549 107.937C165.557 113.699 177.684 121.94 186.93 132.66C196.31 143.38 201 156.11 201 170.85C201 171.118 201 171.52 201 172.056C201 172.458 201 172.86 201 173.262H130.65C130.65 172.86 130.65 172.458 130.65 172.056C130.65 171.654 130.65 171.319 130.65 171.051C130.65 166.495 129.176 162.81 126.228 159.996C123.414 157.182 119.796 155.105 115.374 153.765C111.086 152.425 106.664 151.755 102.108 151.755C98.222 151.755 94.001 152.224 89.445 153.162C84.889 153.966 81.003 155.44 77.787 157.584C74.571 159.594 72.963 162.609 72.963 166.629C72.963 170.113 74.839 173.061 78.591 175.473C82.343 177.885 87.502 179.895 94.068 181.503C100.634 182.977 108.138 184.384 116.58 185.724C124.888 186.93 134.067 188.806 144.117 191.352C154.167 193.898 163.748 197.583 172.86 202.407C181.972 207.097 189.409 213.395 195.171 221.301C201.067 229.207 204.015 239.257 204.015 251.451C204.015 264.315 201.067 275.236 195.171 284.214C189.275 293.192 181.302 300.495 171.252 306.123C161.336 311.617 150.348 315.637 138.288 318.183C126.228 320.729 114.034 322.002 101.706 322.002Z" fill="#1E1AD7"/>
<path d="M258.448 230.748V185.925H392.113L386.083 196.377C386.083 195.305 386.083 194.233 386.083 193.161C386.083 191.955 386.083 190.883 386.083 189.945C386.083 183.915 384.542 177.952 381.46 172.056C378.378 166.026 373.487 161.068 366.787 157.182C360.087 153.162 351.31 151.152 340.456 151.152C329.736 151.152 320.624 153.43 313.12 157.986C305.75 162.408 300.122 168.974 296.236 177.684C292.484 186.26 290.608 196.645 290.608 208.839C290.608 221.569 292.417 232.49 296.035 241.602C299.787 250.58 305.482 257.481 313.12 262.305C320.758 266.995 330.54 269.34 342.466 269.34C349.836 269.34 356.134 268.737 361.36 267.531C366.72 266.325 371.008 264.784 374.224 262.908C377.574 260.898 380.053 258.754 381.661 256.476C383.403 254.064 384.475 251.719 384.877 249.441H455.629C454.825 258.687 451.609 267.665 445.981 276.375C440.353 284.951 432.581 292.723 422.665 299.691C412.883 306.525 400.957 311.952 386.887 315.972C372.951 319.992 357.139 322.002 339.451 322.002C315.197 322.002 294.092 317.312 276.136 307.932C258.18 298.418 244.244 285.286 234.328 268.536C224.546 251.786 219.655 232.49 219.655 210.648C219.655 188.404 224.68 168.974 234.73 152.358C244.78 135.608 258.783 122.61 276.739 113.364C294.829 103.984 315.733 99.294 339.451 99.294C363.973 99.294 385.145 104.051 402.967 113.565C420.789 122.945 434.524 136.211 444.172 153.363C453.82 170.515 458.644 190.682 458.644 213.864C458.644 217.482 458.577 220.765 458.443 223.713C458.309 226.661 458.108 229.006 457.84 230.748H258.448Z" fill="#1E1AD7"/>
<path d="M558.076 2.814V316.977H487.526V2.814H558.076Z" fill="#1E1AD7"/>
<path d="M620.949 316.977V157.785H577.332V103.515H620.949V93.063C620.949 77.385 623.16 64.119 627.582 53.265C632.004 42.411 637.9 33.5 645.27 26.532C652.64 19.564 660.747 14.137 669.591 10.251C678.569 6.365 687.614 3.68499 696.726 2.21098C705.972 0.736994 714.548 0 722.454 0C732.102 0 739.137 0.536 743.559 1.60799C748.115 2.67999 751.197 3.55098 752.805 4.22098V58.893C751.197 58.357 748.316 57.754 744.162 57.084C740.008 56.28 735.519 55.878 730.695 55.878C723.325 55.878 717.161 56.816 712.203 58.692C707.245 60.434 703.359 63.047 700.545 66.531C697.731 70.015 695.654 74.169 694.314 78.993C693.108 83.683 692.505 88.976 692.505 94.872V103.515H748.182V157.785H692.505V316.977H620.949Z" fill="#1E1AD7"/>
<path d="M853.525 322.002C840.795 322.002 828.4 320.528 816.34 317.58C804.414 314.632 793.56 310.21 783.778 304.314C774.13 298.284 766.358 290.78 760.462 281.802C754.7 272.824 751.819 262.372 751.819 250.446C751.819 250.044 751.819 249.575 751.819 249.039C751.819 248.503 751.819 248.034 751.819 247.632H822.973C822.973 248.034 822.973 248.436 822.973 248.838C822.973 249.24 822.973 249.642 822.973 250.044C822.973 256.744 825.854 261.568 831.616 264.516C837.512 267.464 845.485 268.938 855.535 268.938C860.091 268.938 864.714 268.469 869.404 267.531C874.228 266.459 878.248 264.784 881.464 262.506C884.814 260.094 886.489 257.079 886.489 253.461C886.489 247.699 883.005 243.612 876.037 241.2C869.203 238.788 857.612 236.242 841.264 233.562C831.884 232.088 822.102 229.877 811.918 226.929C801.868 223.981 792.488 220.028 783.778 215.07C775.068 210.112 768.033 203.814 762.673 196.176C757.313 188.538 754.633 179.158 754.633 168.036C754.633 152.894 759.189 140.298 768.301 130.248C777.413 120.064 789.473 112.359 804.481 107.133C819.623 101.907 836.239 99.294 854.329 99.294C871.481 99.294 887.494 102.175 902.368 107.937C917.376 113.699 929.503 121.94 938.749 132.66C948.129 143.38 952.819 156.11 952.819 170.85C952.819 171.118 952.819 171.52 952.819 172.056C952.819 172.458 952.819 172.86 952.819 173.262H882.469C882.469 172.86 882.469 172.458 882.469 172.056C882.469 171.654 882.469 171.319 882.469 171.051C882.469 166.495 880.995 162.81 878.047 159.996C875.233 157.182 871.615 155.105 867.193 153.765C862.905 152.425 858.483 151.755 853.927 151.755C850.041 151.755 845.82 152.224 841.264 153.162C836.708 153.966 832.822 155.44 829.606 157.584C826.39 159.594 824.782 162.609 824.782 166.629C824.782 170.113 826.658 173.061 830.41 175.473C834.162 177.885 839.321 179.895 845.887 181.503C852.453 182.977 859.957 184.384 868.398 185.724C876.707 186.93 885.886 188.806 895.936 191.352C905.986 193.898 915.567 197.583 924.679 202.407C933.791 207.097 941.228 213.395 946.99 221.301C952.886 229.207 955.834 239.257 955.834 251.451C955.834 264.315 952.886 275.236 946.99 284.214C941.094 293.192 933.121 300.495 923.071 306.123C913.155 311.617 902.167 315.637 890.107 318.183C878.047 320.729 865.853 322.002 853.525 322.002Z" fill="#1E1AD7"/>
<path d="M1010.27 230.748V185.925H1143.93L1137.9 196.377C1137.9 195.305 1137.9 194.233 1137.9 193.161C1137.9 191.955 1137.9 190.883 1137.9 189.945C1137.9 183.915 1136.36 177.952 1133.28 172.056C1130.2 166.026 1125.31 161.068 1118.61 157.182C1111.91 153.162 1103.13 151.152 1092.27 151.152C1081.55 151.152 1072.44 153.43 1064.94 157.986C1057.57 162.408 1051.94 168.974 1048.05 177.684C1044.3 186.26 1042.43 196.645 1042.43 208.839C1042.43 221.569 1044.24 232.49 1047.85 241.602C1051.61 250.58 1057.3 257.481 1064.94 262.305C1072.58 266.995 1082.36 269.34 1094.28 269.34C1101.65 269.34 1107.95 268.737 1113.18 267.531C1118.54 266.325 1122.83 264.784 1126.04 262.908C1129.39 260.898 1131.87 258.754 1133.48 256.476C1135.22 254.064 1136.29 251.719 1136.7 249.441H1207.45C1206.64 258.687 1203.43 267.665 1197.8 276.375C1192.17 284.951 1184.4 292.723 1174.48 299.691C1164.7 306.525 1152.78 311.952 1138.71 315.972C1124.77 319.992 1108.96 322.002 1091.27 322.002C1067.02 322.002 1045.91 317.312 1027.95 307.932C1010 298.418 996.063 285.286 986.147 268.536C976.365 251.786 971.474 232.49 971.474 210.648C971.474 188.404 976.499 168.974 986.549 152.358C996.599 135.608 1010.6 122.61 1028.56 113.364C1046.65 103.984 1067.55 99.294 1091.27 99.294C1115.79 99.294 1136.96 104.051 1154.79 113.565C1172.61 122.945 1186.34 136.211 1195.99 153.363C1205.64 170.515 1210.46 190.682 1210.46 213.864C1210.46 217.482 1210.4 220.765 1210.26 223.713C1210.13 226.661 1209.93 229.006 1209.66 230.748H1010.27Z" fill="#1E1AD7"/>
<path d="M1347.3 321.801C1338.59 321.801 1329.48 321.064 1319.96 319.59C1310.45 318.25 1301.61 315.436 1293.43 311.148C1285.26 306.86 1278.62 300.428 1273.53 291.852C1268.44 283.276 1265.89 271.886 1265.89 257.682C1265.89 254.6 1265.89 251.585 1265.89 248.637C1265.89 245.555 1265.89 242.473 1265.89 239.391V157.785H1217.45V103.515H1224.89C1234.14 103.515 1241.51 103.113 1247 102.309C1252.49 101.505 1256.58 99.495 1259.26 96.279C1261.94 93.063 1263.68 88.105 1264.49 81.405C1265.43 74.571 1265.89 65.124 1265.89 53.064V33.366H1337.85V103.515H1398.15V157.785H1337.85V225.522C1337.85 227.8 1337.85 230.011 1337.85 232.155C1337.85 234.165 1337.85 236.242 1337.85 238.386C1337.85 246.828 1338.86 253.863 1340.87 259.491C1342.88 265.119 1348.1 267.933 1356.55 267.933C1361.24 267.933 1365.66 267.464 1369.81 266.526C1373.97 265.588 1377.05 264.717 1379.06 263.913V316.575C1376.11 317.781 1371.89 318.92 1366.39 319.992C1360.9 321.198 1354.54 321.801 1347.3 321.801Z" fill="#1E1AD7"/>
<path d="M1464.35 323.208C1454.3 323.208 1445.72 319.657 1438.62 312.555C1431.65 305.453 1428.17 296.877 1428.17 286.827C1428.17 276.911 1431.65 268.402 1438.62 261.3C1445.72 254.198 1454.36 250.647 1464.55 250.647C1474.46 250.647 1482.91 254.198 1489.87 261.3C1496.98 268.402 1500.53 276.911 1500.53 286.827C1500.53 296.877 1496.98 305.453 1489.87 312.555C1482.91 319.657 1474.4 323.208 1464.35 323.208Z" fill="#1E1AD7"/>
<path d="M1648.96 322.002C1624.44 322.002 1603.13 317.178 1585.04 307.53C1567.09 297.882 1553.22 284.616 1543.44 267.732C1533.65 250.848 1528.76 231.418 1528.76 209.442C1528.76 187.332 1533.65 168.036 1543.44 151.554C1553.22 135.072 1567.09 122.275 1585.04 113.163C1603.13 103.917 1624.44 99.294 1648.96 99.294C1667.18 99.294 1683.26 101.907 1697.2 107.133C1711.14 112.359 1722.73 119.327 1731.97 128.037C1741.35 136.613 1748.46 146.06 1753.28 156.378C1758.1 166.562 1760.52 176.679 1760.52 186.729C1760.52 186.997 1760.52 187.332 1760.52 187.734C1760.52 188.002 1760.52 188.27 1760.52 188.538H1689.56C1689.56 187.734 1689.5 186.997 1689.36 186.327C1689.36 185.657 1689.23 184.92 1688.96 184.116C1687.89 179.56 1685.88 175.138 1682.93 170.85C1679.98 166.428 1675.69 162.81 1670.07 159.996C1664.57 157.048 1657.34 155.574 1648.36 155.574C1639.11 155.574 1630.94 157.651 1623.84 161.805C1616.87 165.959 1611.37 172.056 1607.35 180.096C1603.47 188.002 1601.52 197.784 1601.52 209.442C1601.52 220.698 1603.47 230.614 1607.35 239.19C1611.37 247.632 1616.87 254.198 1623.84 258.888C1630.94 263.444 1639.11 265.722 1648.36 265.722C1657.6 265.722 1665.11 264.315 1670.87 261.501C1676.77 258.553 1681.19 254.667 1684.14 249.843C1687.08 244.885 1688.83 239.391 1689.36 233.361H1760.52C1760.52 243.545 1758.1 253.863 1753.28 264.315C1748.59 274.633 1741.55 284.147 1732.17 292.857C1722.93 301.567 1711.34 308.602 1697.4 313.962C1683.47 319.322 1667.32 322.002 1648.96 322.002Z" fill="#1E1AD7"/>
<path d="M1895.29 321.801C1871.71 321.801 1850.94 317.111 1832.98 307.731C1815.16 298.217 1801.16 285.085 1790.97 268.335C1780.92 251.585 1775.9 232.289 1775.9 210.447C1775.9 188.471 1780.92 169.175 1790.97 152.559C1801.16 135.809 1815.16 122.744 1832.98 113.364C1850.94 103.984 1871.71 99.294 1895.29 99.294C1918.88 99.294 1939.58 103.984 1957.4 113.364C1975.36 122.744 1989.36 135.809 1999.41 152.559C2009.59 169.175 2014.69 188.471 2014.69 210.447C2014.69 232.289 2009.59 251.585 1999.41 268.335C1989.36 285.085 1975.36 298.217 1957.4 307.731C1939.58 317.111 1918.88 321.801 1895.29 321.801ZM1895.29 266.526C1904.94 266.526 1913.25 264.181 1920.22 259.491C1927.18 254.801 1932.54 248.302 1936.3 239.994C1940.05 231.552 1941.92 221.703 1941.92 210.447C1941.92 199.057 1940.05 189.208 1936.3 180.9C1932.54 172.592 1927.18 166.16 1920.22 161.604C1913.25 157.048 1904.94 154.77 1895.29 154.77C1885.78 154.77 1877.47 157.048 1870.37 161.604C1863.4 166.16 1858.04 172.592 1854.29 180.9C1850.54 189.208 1848.66 199.057 1848.66 210.447C1848.66 221.703 1850.54 231.552 1854.29 239.994C1858.04 248.302 1863.4 254.801 1870.37 259.491C1877.47 264.181 1885.78 266.526 1895.29 266.526Z" fill="#1E1AD7"/>
</svg>
