<svg width="708" height="667" viewBox="0 0 708 667" fill="none" xmlns="http://www.w3.org/2000/svg">
<rect width="708" height="667" fill="white"/>
<path opacity="0.4" d="M676.396 520.071L531.178 603.31C523.75 607.567 515.386 610.293 506.675 611.295C497.963 612.296 489.116 611.55 480.756 609.107L321.575 562.599C313.163 560.141 304.257 559.401 295.493 560.431C286.73 561.46 278.324 564.235 270.876 568.557L154.336 636.175C150.761 638.229 146.708 639.496 142.5 639.878C138.291 640.259 134.043 639.744 130.092 638.373C126.14 637.002 122.595 634.813 119.737 631.979C116.879 629.146 114.787 625.746 113.626 622.049L13.0436 301.542C11.4311 296.403 11.6929 290.927 13.7899 285.934C15.8869 280.941 19.7063 276.7 24.6765 273.844L171.443 189.534C179.579 184.86 188.746 181.866 198.295 180.764C207.844 179.661 217.543 180.478 226.707 183.155L380.808 228.179C390.005 230.866 399.741 231.679 409.322 230.559C418.904 229.44 428.097 226.415 436.247 221.701L546.604 157.867C550.179 155.8 554.235 154.519 558.45 154.128C562.665 153.737 566.922 154.245 570.883 155.613C574.844 156.981 578.398 159.17 581.264 162.007C584.129 164.843 586.227 168.249 587.389 171.952L687.956 492.415C689.565 497.542 689.309 503.003 687.226 507.987C685.143 512.97 681.344 517.209 676.396 520.071V520.071Z" fill="#CCCDCF"/>
<path d="M682.862 493.669L563.437 569.822C555.588 574.827 546.735 578.039 537.507 579.227C528.279 580.416 518.903 579.553 510.046 576.701L361.625 528.897C352.8 526.054 343.459 525.188 334.263 526.358C325.067 527.528 316.239 530.707 308.402 535.669L180.079 616.939C176.635 619.119 172.732 620.465 168.679 620.87C164.626 621.275 160.535 620.728 156.73 619.273C152.924 617.817 149.51 615.493 146.757 612.484C144.005 609.476 141.99 605.866 140.872 601.941L44.0054 261.651C42.4521 256.195 42.7041 250.381 44.7234 245.08C46.7428 239.779 50.421 235.275 55.2076 232.244L196.546 142.726C204.383 137.763 213.211 134.585 222.407 133.414C231.603 132.244 240.944 133.111 249.77 135.953L398.189 183.758C407.046 186.611 416.422 187.474 425.65 186.285C434.878 185.096 443.731 181.884 451.581 176.879L557.862 109.106C561.305 106.911 565.211 105.551 569.27 105.136C573.33 104.72 577.43 105.26 581.244 106.713C585.058 108.165 588.482 110.489 591.241 113.501C594.001 116.513 596.021 120.128 597.141 124.06L693.993 464.301C695.544 469.745 695.298 475.544 693.292 480.836C691.286 486.128 687.628 490.629 682.862 493.669V493.669Z" fill="white"/>
<path d="M327 472.78L306.009 413.739L206.812 447.593L175.794 358L95 374.03L151.646 571.997C151.897 572.866 152.424 573.629 153.15 574.171C153.875 574.712 154.757 575.004 155.663 575C156.432 574.997 157.183 574.77 157.825 574.348L273.147 501.689C272.646 501.105 327 472.78 327 472.78Z" fill="#A8A6FF" fill-opacity="0.54"/>
<path d="M682.36 486.072L557.989 557.798C549.815 562.512 540.595 565.536 530.985 566.656C521.375 567.776 511.611 566.963 502.387 564.276L347.82 519.252C338.629 516.574 328.902 515.758 319.324 516.86C309.747 517.963 300.554 520.956 292.393 525.63L158.755 602.175C155.169 604.229 151.105 605.496 146.884 605.878C142.663 606.259 138.402 605.744 134.439 604.373C130.476 603.002 126.921 600.813 124.054 597.979C121.188 595.146 119.089 591.746 117.925 588.049L17.047 267.543C15.4295 262.404 15.6918 256.928 17.7948 251.935C19.8978 246.943 23.7283 242.701 28.7132 239.846L175.905 155.532C184.066 150.858 193.259 147.865 202.837 146.762C212.414 145.66 222.141 146.476 231.332 149.154L385.898 194.179C395.122 196.866 404.886 197.679 414.496 196.559C424.106 195.439 433.326 192.414 441.5 187.7L552.183 123.867C555.768 121.8 559.836 120.519 564.064 120.128C568.291 119.737 572.561 120.245 576.533 121.613C580.506 122.981 584.071 125.17 586.945 128.007C589.819 130.843 591.922 134.249 593.088 137.952L693.952 458.412C695.566 463.539 695.31 469.001 693.221 473.985C691.133 478.97 687.323 483.209 682.36 486.072V486.072Z" stroke="#0E0D46" stroke-width="8" stroke-miterlimit="10"/>
<path d="M226 471.5C246.276 464.42 326.5 445.5 332.759 404.559C352 339 196.5 309.911 287.657 275.826C453 214 385.311 402.922 466.004 399.621C500.094 398.227 437.051 351.18 534.453 317.173C548.892 312.132 541.719 275.272 536.875 256" stroke="#363A5A" stroke-width="4" stroke-linecap="round" stroke-linejoin="round" stroke-dasharray="10.18 15.26"/>
<path d="M535 250C534.397 246.857 534 245 534 245" stroke="#363A5A" stroke-width="4" stroke-linecap="round" stroke-linejoin="round"/>
<path opacity="0.22" d="M187.5 524C212.629 524 233 503.405 233 478C233 452.595 212.629 432 187.5 432C162.371 432 142 452.595 142 478C142 503.405 162.371 524 187.5 524Z" fill="#1E1AD7"/>
<path d="M188 505C202.912 505 215 492.912 215 478C215 463.088 202.912 451 188 451C173.088 451 161 463.088 161 478C161 492.912 173.088 505 188 505Z" fill="#1E1AD7"/>
<path d="M187.67 451C183.48 450.997 179.346 451.961 175.588 453.816C171.83 455.671 168.549 458.368 166 461.697C171.373 458.04 177.871 456.42 184.329 457.126C190.787 457.833 196.783 460.82 201.241 465.551C205.698 470.283 208.326 476.45 208.654 482.946C208.981 489.443 206.986 495.843 203.026 501C207.862 497.711 211.517 492.957 213.454 487.436C215.392 481.914 215.511 475.916 213.793 470.322C212.075 464.728 208.611 459.833 203.91 456.355C199.209 452.878 193.517 451.001 187.672 451H187.67Z" fill="#6360FA"/>
<path d="M188 505C202.912 505 215 492.912 215 478C215 463.088 202.912 451 188 451C173.088 451 161 463.088 161 478C161 492.912 173.088 505 188 505Z" stroke="#363A5A" stroke-width="6" stroke-miterlimit="10"/>
<path opacity="0.2" d="M239.338 209.421L316 224.032L298.395 192.919L234.945 170.66C231.276 169.373 227.39 168.825 223.509 169.049C219.629 169.272 215.83 170.261 212.33 171.961L72.9129 257.113C72.1642 257.593 71.5889 258.302 71.2721 259.136C70.9554 259.97 70.914 260.885 71.154 261.744L93.638 341L154.935 325.76L143.678 280.356L239.338 209.421Z" fill="#1E1AD7" fill-opacity="0.54" stroke="#1E1AD7" stroke-width="4" stroke-linecap="round" stroke-linejoin="round"/>
<path opacity="0.3" d="M391 405L434.142 416.109L455 465L408.524 457.208L391 405Z" fill="#1E1AD7" fill-opacity="0.54" stroke="#2C2A86" stroke-opacity="0.79" stroke-width="4" stroke-linecap="round" stroke-linejoin="round"/>
<path d="M535.001 259C499.101 259 470 248.927 470 236.5C470 224.074 499.101 214 535.001 214C570.9 214 600 224.074 600 236.5C600 248.927 570.899 259 535.001 259Z" fill="#A8A6FF" fill-opacity="0.54"/>
<path opacity="0.3" d="M554.878 390.845L635.249 356L667 452.339L536.855 526L513 458.95L563.889 430.441L554.878 390.845Z" fill="#1E1AD7" fill-opacity="0.54" stroke="#2C2A86" stroke-opacity="0.79" stroke-width="4" stroke-linecap="round" stroke-linejoin="round"/>
<path d="M629 124.665C629 69.1878 584.23 24.5141 529.982 27.1075C481.409 29.4302 440 71.0498 440 121.289C440 193.963 534.475 250 534.475 250C534.475 250 629 193.963 629 124.665Z" fill="#1E1AD7"/>
<path d="M569.088 221.933C561.632 227.767 552.439 230.92 542.983 230.888C533.527 230.855 524.355 227.638 516.94 221.753C488.956 199.529 448.482 159.177 448.482 111.724C448.552 91.5753 455.196 72.004 467.401 56C450.617 72.9997 440 96.1666 440 121.54C440 194.072 534.554 250 534.554 250C534.554 250 573.114 227.201 601 192.715C591.157 203.293 580.486 213.064 569.088 221.933V221.933Z" fill="#0E0B9B"/>
<path d="M529.737 27.1075C512.664 27.9901 496.156 33.5405 482 43.1583C493.147 37.765 505.26 34.6694 517.62 34.0545C572.004 31.4631 616.886 76.1333 616.886 131.611C616.886 185.946 558.631 232.126 533.472 249.535C533.965 249.837 534.238 250 534.238 250C534.238 250 629 193.961 629 124.664C629.002 69.1872 584.121 24.5141 529.737 27.1075Z" fill="#6360FA"/>
<path d="M535.001 162C527.287 162 519.747 159.713 513.333 155.428C506.92 151.142 501.921 145.052 498.969 137.925C496.017 130.799 495.245 122.957 496.749 115.392C498.254 107.827 501.968 100.878 507.422 95.4232C512.877 89.9688 519.826 86.2544 527.391 84.7495C534.956 83.2446 542.798 84.0168 549.924 86.9686C557.051 89.9204 563.142 94.9191 567.427 101.333C571.713 107.746 574 115.286 574 123C574 133.343 569.891 143.263 562.577 150.577C555.264 157.891 545.344 162 535.001 162Z" fill="white"/>
<path d="M535.001 162C527.287 162 519.747 159.713 513.333 155.428C506.92 151.142 501.921 145.052 498.969 137.925C496.017 130.799 495.245 122.957 496.749 115.392C498.254 107.827 501.968 100.878 507.422 95.4232C512.877 89.9688 519.826 86.2544 527.391 84.7495C534.956 83.2446 542.798 84.0168 549.924 86.9686C557.051 89.9204 563.142 94.9191 567.427 101.333C571.713 107.746 574 115.286 574 123C574 133.343 569.891 143.263 562.577 150.577C555.264 157.891 545.344 162 535.001 162Z" stroke="#363A5A" stroke-width="6" stroke-miterlimit="10"/>
<path d="M629 124.665C629 69.1878 584.23 24.5141 529.982 27.1075C481.409 29.4302 440 71.0498 440 121.289C440 193.963 534.475 250 534.475 250C534.475 250 629 193.963 629 124.665Z" stroke="#363A5A" stroke-width="6" stroke-linecap="round" stroke-linejoin="round"/>
</svg>
